<svg width="156" height="71" viewBox="0 0 156 71" fill="none" xmlns="http://www.w3.org/2000/svg">
<path d="M31.7409 60.358C24.4967 60.4696 19.0614 57.5247 18.5923 51.4159C18.5816 51.3395 18.5877 51.2615 18.6101 51.1877C18.6326 51.1139 18.6708 51.0461 18.7221 50.989C18.7734 50.932 18.8365 50.8872 18.9069 50.8578C18.9772 50.8285 19.0531 50.8153 19.1291 50.8192H25.8365C26.0063 50.8072 26.174 50.8628 26.3042 50.9741C26.4344 51.0855 26.5167 51.244 26.5339 51.4159C26.9565 53.6525 28.7908 54.9619 32.0283 54.9619C35.5152 54.9619 37.9454 53 37.9454 48.5826V45.3673C37.0282 46.6209 35.8274 47.6319 34.4444 48.3149C33.0614 48.9978 31.5368 49.3326 29.9996 49.291C21.7875 49.291 17.4934 43.1307 17.4934 35.2275C17.4934 27.3243 22.0792 20.9966 29.5854 20.9966C33.0216 20.9966 35.7054 22.1943 37.582 24.4309L37.4763 21.9754C37.4658 21.8967 37.4729 21.8167 37.4971 21.7412C37.5212 21.6658 37.5618 21.5968 37.6158 21.5395C37.6698 21.4821 37.7359 21.4379 37.809 21.4101C37.8822 21.3822 37.9606 21.3715 38.0384 21.3786H44.9107C45.0662 21.3798 45.215 21.443 45.3249 21.5547C45.4348 21.6663 45.4971 21.8174 45.4982 21.9754L45.3376 35.8242L45.4475 48.7028C45.4813 55.7775 40.8659 60.358 31.7409 60.358ZM31.6987 43.9506C35.6209 43.9506 37.713 41.113 37.7679 35.4421C37.8186 29.6081 35.7265 26.3927 31.8508 26.3369C27.768 26.2296 25.6759 29.2818 25.6759 34.8969C25.6759 40.9499 27.823 44.0021 31.6987 43.9506Z" fill="white"/>
<path d="M49.1332 49.4541C48.9773 49.453 48.8281 49.3899 48.7175 49.2783C48.6069 49.1668 48.5437 49.0157 48.5415 48.8574L48.7571 35.3906L48.5415 21.9753C48.5437 21.817 48.6069 21.6659 48.7175 21.5543C48.8281 21.4428 48.9773 21.3797 49.1332 21.3786H56.0013C56.0772 21.3747 56.1531 21.3879 56.2235 21.4172C56.2938 21.4466 56.3569 21.4914 56.4082 21.5484C56.4595 21.6054 56.4977 21.6733 56.5202 21.7471C56.5426 21.8209 56.5487 21.8988 56.538 21.9753L56.3774 26.1222C58.5245 22.7953 62.2311 21.1597 66.2547 21.1597C66.6328 21.1699 67.0098 21.2057 67.3832 21.267C67.5446 21.3021 67.69 21.3908 67.7963 21.519C67.9027 21.6472 67.964 21.8078 67.9707 21.9753V26.8306C67.9692 26.9061 67.9525 26.9806 67.9218 27.0494C67.8911 27.1183 67.8469 27.1801 67.792 27.231C67.737 27.282 67.6725 27.3211 67.6022 27.346C67.532 27.3709 67.4574 27.381 67.3832 27.3758C67.0812 27.3295 66.7756 27.3109 66.4703 27.32C60.7814 27.32 56.593 30.5353 56.593 36.9704L56.6479 48.8574C56.6457 49.0157 56.5825 49.1668 56.4719 49.2783C56.3613 49.3899 56.2121 49.453 56.0562 49.4541H49.1332Z" fill="white"/>
<path d="M70.5487 49.4539C70.3929 49.4528 70.2436 49.3897 70.133 49.2782C70.0224 49.1666 69.9592 49.0155 69.957 48.8572L70.1599 35.4419L69.9443 21.9752C69.9465 21.8169 70.0097 21.6657 70.1203 21.5542C70.2309 21.4426 70.3802 21.3796 70.536 21.3785H77.6197C77.7759 21.3784 77.9257 21.4412 78.0366 21.553C78.1474 21.6647 78.2102 21.8165 78.2114 21.9752L77.9958 35.4419L78.2114 48.8572C78.2102 49.0159 78.1474 49.1676 78.0366 49.2794C77.9257 49.3912 77.7759 49.4539 77.6197 49.4539H70.5487ZM70.6037 18.6525C70.4474 18.6503 70.2982 18.5862 70.1877 18.474C70.0772 18.3618 70.0141 18.2102 70.012 18.0515V11.8912C70.0141 11.7325 70.0772 11.5809 70.1877 11.4687C70.2982 11.3564 70.4474 11.2924 70.6037 11.2902H77.5816C77.6606 11.2885 77.7391 11.3027 77.8126 11.3321C77.8861 11.3615 77.9531 11.4054 78.0097 11.4613C78.0664 11.5173 78.1115 11.5841 78.1425 11.6579C78.1735 11.7316 78.1897 11.811 78.1902 11.8912V18.0515C78.1891 18.2098 78.127 18.3614 78.0172 18.4737C77.9074 18.5861 77.7586 18.6502 77.6027 18.6525H70.6037Z" fill="white"/>
<path d="M98.5661 48.3121C98.5548 48.4839 98.4993 48.6497 98.4051 48.7928C98.3109 48.936 98.1813 49.0515 98.0294 49.1278C96.4344 49.6592 94.771 49.9485 93.0928 49.9863C88.4437 49.9863 83.9678 47.5866 83.9678 41.2117L84.0228 27.1439H81.0135C80.8573 27.1428 80.7079 27.079 80.5978 26.9664C80.4878 26.8538 80.426 26.7016 80.426 26.5429V21.9753C80.4271 21.8174 80.4894 21.6662 80.5993 21.5546C80.7093 21.4429 80.858 21.3797 81.0135 21.3786H83.9721L83.9171 14.9392C83.9193 14.7809 83.9825 14.6298 84.0931 14.5183C84.2037 14.4067 84.353 14.3436 84.5088 14.3425H91.4868C91.6426 14.3436 91.7919 14.4067 91.9025 14.5183C92.0131 14.6298 92.0763 14.7809 92.0785 14.9392L92.0235 21.3786H98.0336C98.1895 21.3797 98.3387 21.4428 98.4493 21.5543C98.5599 21.6659 98.6231 21.817 98.6253 21.9753V26.5558C98.6242 26.7148 98.5615 26.867 98.4508 26.9795C98.3401 27.092 98.1902 27.1557 98.0336 27.1568H91.9644L92.0193 41.0056C92.0193 43.4054 93.1985 44.1652 94.9778 44.1652C95.9955 44.1615 97.0078 44.017 97.9871 43.7359C98.0539 43.7188 98.1237 43.7168 98.1914 43.7299C98.2591 43.743 98.3231 43.771 98.3791 43.8119C98.435 43.8528 98.4815 43.9056 98.5153 43.9666C98.549 44.0276 98.5693 44.0954 98.5746 44.1652L98.5661 48.3121Z" fill="white"/>
<path d="M101.626 49.454C101.47 49.4529 101.321 49.3898 101.21 49.2783C101.1 49.1668 101.037 49.0156 101.034 48.8573L101.305 30.3722L101.034 11.9128C101.037 11.7541 101.1 11.6025 101.21 11.4903C101.321 11.378 101.47 11.314 101.626 11.3118H108.498C108.654 11.314 108.803 11.3782 108.913 11.4905C109.023 11.6029 109.085 11.7545 109.086 11.9128L108.82 30.3936L109.086 48.8788C109.085 49.0367 109.023 49.1878 108.913 49.2995C108.803 49.4112 108.654 49.4744 108.498 49.4755L101.626 49.454Z" fill="white"/>
<path d="M126.317 58.1774C126.244 58.3343 126.131 58.468 125.988 58.5641C125.846 58.6602 125.681 58.715 125.51 58.7226H119.018C118.953 58.7243 118.889 58.7097 118.831 58.6801C118.773 58.6504 118.723 58.6066 118.686 58.5526C118.649 58.4986 118.625 58.4361 118.618 58.3706C118.61 58.3051 118.618 58.2388 118.642 58.1774L121.486 49.729L110.43 21.924C110.406 21.8626 110.398 21.7962 110.405 21.7308C110.413 21.6653 110.437 21.6028 110.474 21.5488C110.511 21.4948 110.561 21.451 110.619 21.4213C110.677 21.3917 110.741 21.3771 110.806 21.3788H118.697C118.869 21.3796 119.037 21.4317 119.179 21.5286C119.322 21.6256 119.434 21.7631 119.5 21.924L125.459 39.3703L130.396 21.9755C130.448 21.8106 130.547 21.6654 130.681 21.559C130.816 21.4525 130.978 21.3897 131.148 21.3788H138.126C138.193 21.3722 138.26 21.3836 138.32 21.4118C138.381 21.4401 138.433 21.4843 138.471 21.5398C138.509 21.5952 138.532 21.6601 138.538 21.7276C138.543 21.7951 138.531 21.8629 138.502 21.924L126.317 58.1774Z" fill="white"/>
</svg>
